<?xml version="1.0" encoding="UTF-8" standalone="no"?>
<svg
   xmlns:dc="http://purl.org/dc/elements/1.1/"
   xmlns:cc="http://creativecommons.org/ns#"
   xmlns:rdf="http://www.w3.org/1999/02/22-rdf-syntax-ns#"
   xmlns:svg="http://www.w3.org/2000/svg"
   xmlns="http://www.w3.org/2000/svg"
   viewBox="0 0 625 625"
   height="625"
   width="625"
   xml:space="preserve"
   version="1.1"
   id="svg2"><metadata
     id="metadata8"><rdf:RDF><cc:Work
         rdf:about=""><dc:format>image/svg+xml</dc:format><dc:type
           rdf:resource="http://purl.org/dc/dcmitype/StillImage" /><dc:title></dc:title></cc:Work></rdf:RDF></metadata><defs
     id="defs6"><clipPath
       id="clipPath16"
       clipPathUnits="userSpaceOnUse"><path
         id="path18"
         d="M 0,500 500,500 500,0 0,0 0,500 Z" /></clipPath><clipPath
       id="clipPath32"
       clipPathUnits="userSpaceOnUse"><path
         id="path34"
         d="m 45.399,386.076 445.128,0 0,-379.85835 -445.128,0 0,379.85835 z" /></clipPath></defs><g
     transform="matrix(1.25,0,0,-1.25,0,625)"
     id="g10"><g
       id="g12"><g
         clip-path="url(#clipPath16)"
         id="g14"><g
           transform="translate(494.7076,250)"
           id="g20"><path
             id="path22"
             style="fill:#f7931e;fill-opacity:1;fill-rule:nonzero;stroke:none"
             d="m 0,0 c 0,-134.856 -109.322,-244.178 -244.178,-244.178 -134.856,0 -244.179,109.322 -244.179,244.178 0,134.856 109.323,244.178 244.179,244.178 C -109.322,244.178 0,134.856 0,0" /></g><g
           transform="translate(494.7076,250)"
           id="g24"><path
             id="path26"
             style="fill:none;stroke:#f7931e;stroke-width:6.92999983;stroke-linecap:butt;stroke-linejoin:miter;stroke-miterlimit:10;stroke-dasharray:none;stroke-opacity:1"
             d="m 0,0 c 0,-134.856 -109.322,-244.178 -244.178,-244.178 -134.856,0 -244.179,109.322 -244.179,244.178 0,134.856 109.323,244.178 244.179,244.178 C -109.322,244.178 0,134.856 0,0 Z" /></g><g
           id="g28"><g
             id="g30" /><g
             id="g36"><g
               style="opacity:0.5"
               id="g38"
               clip-path="url(#clipPath32)"><g
                 id="g40"
                 transform="translate(45.399,166.9145)"><path
                   id="path42"
                   style="fill:#808080;fill-opacity:1;fill-rule:nonzero;stroke:none"
                   d="m 0,0 155.472,-155.492 33.892,-5.205 46.74,3.552 37.426,6.36 40.452,16.25 39.76,25.418 46.778,48.451 26.446,46.036 18.162,64.993 -0.298,67.623 -11.743,47.39 -9.832,23.518 -29.873,30.267 -0.781,-24.736 0,-19.865 -5.464,-31.593 -5.026,-13.881 11.55,0 13.398,7.722 1.386,-8.462 1.848,-12.426 -6.468,-18.034 -14.322,-17.564 32.801,6.464 -10.163,-27.26 -33.726,-32.713 -35.573,-14.513 -31.577,1.547 -3.534,-12.134 4.62,-22.344 -7.161,-14.091 -20.79,-13.86 -33.725,-10.395 -24.255,-5.825 -34.187,-2.721 -18.249,0.923 -23.099,3.696 -12.012,14.091 -6.468,22.176 -9.24,3.129 -15.476,-5.944 -31.416,-2.729 -38.345,6.237 L 0,0 Z" /></g></g></g></g><g
           transform="translate(161.1534,296.5816)"
           id="g44"><path
             id="path46"
             style="fill:none;stroke:#ffffff;stroke-width:9.70199966;stroke-linecap:butt;stroke-linejoin:miter;stroke-miterlimit:10;stroke-dasharray:none;stroke-opacity:1"
             d="m 0,0 c -0.831,5.207 7.045,13.49 74.413,23.687 67.368,10.197 82.096,6.929 83.073,1.464 0.806,-4.508 3.071,-9.626 -72.595,-22.272 C 9.226,-9.768 0.481,-3.014 0,0 Z" /></g><g
           transform="translate(162.885,296.0809)"
           id="g48"><path
             id="path50"
             style="fill:none;stroke:#ffffff;stroke-width:9.70199966;stroke-linecap:butt;stroke-linejoin:miter;stroke-miterlimit:10;stroke-dasharray:none;stroke-opacity:1"
             d="m 0,0 c -0.353,-0.248 -1.515,-0.326 -1.515,-0.326 l 4.552,-28.499 c 0,0 1.785,-13.485 81.421,-0.767 79.637,12.718 76.549,24.59 76.549,24.59 l -5.025,30.392" /></g><g
           transform="translate(166.4238,267.4763)"
           id="g52"><path
             id="path54"
             style="fill:none;stroke:#ffffff;stroke-width:9.70199966;stroke-linecap:butt;stroke-linejoin:miter;stroke-miterlimit:10;stroke-dasharray:none;stroke-opacity:1"
             d="m 0,0 -5.78,-32.435 17.101,-107.074 c 0,0 3.103,-24.411 36.26,-25.613 33.157,-1.202 57.472,2.465 57.472,2.465 0,0 46.542,8.949 61.795,17.449 15.253,8.5 25.645,16.008 22.973,35.939 -2.672,19.932 -16.549,103.913 -16.549,103.913 l -15.804,28.959" /></g><g
           transform="translate(354.5862,178.5933)"
           id="g56"><path
             id="path58"
             style="fill:none;stroke:#ffffff;stroke-width:9.70199966;stroke-linecap:butt;stroke-linejoin:miter;stroke-miterlimit:10;stroke-dasharray:none;stroke-opacity:1"
             d="m 0,0 c -0.31,2.005 -0.643,4.134 -0.993,6.355 -3.951,25.103 -12.451,76.08 -12.451,76.08 l -6.56,11.311 c 79.106,40.187 101.853,100.46 101.853,100.46 0,0 11.491,-71.396 -27.63,-95.847 l 48.413,32.764 c 0,0 -1.467,-52.812 -29.341,-63.816 l 43.522,10.514 C 116.813,77.821 96.336,-1.467 0,0" /></g><g
           transform="translate(163.99,214.0906)"
           id="g60"><path
             id="path62"
             style="fill:none;stroke:#ffffff;stroke-width:9.70199966;stroke-linecap:butt;stroke-linejoin:miter;stroke-miterlimit:10;stroke-dasharray:none;stroke-opacity:1"
             d="m 0,0 -3.346,26.117 c -88.269,9.017 -133.991,58.28 -133.991,58.28 0,0 14.98,-70.746 60.28,-79.475 l -56.961,13.14 c 0,0 20.38,-48.744 50.346,-48.976 l -44.389,-5.858 c 0,0 47.646,-66.601 136.996,-30.554" /></g><g
           transform="translate(255.2627,176.8067)"
           id="g64"><path
             id="path66"
             style="fill:#ffffff;fill-opacity:1;fill-rule:nonzero;stroke:none"
             d="m 0,0 c 0,0 9.927,-5.003 18.335,3.955 l 7.906,-5.875 c 0,0 -12.547,-15.343 -31.136,-6.183 L 0,0 Z" /></g><g
           transform="translate(247.8417,162.0897)"
           id="g68"><path
             id="path70"
             style="fill:#ffffff;fill-opacity:1;fill-rule:nonzero;stroke:none"
             d="m 0,0 c 0,0 22.281,-9.602 37.468,7.441 0,0 2.948,-4.586 2.927,-8.822 0,0 -15.265,-19.017 -39.412,-7.514 0,0 -2.063,1.706 -0.983,8.895" /></g><g
           transform="translate(251.4449,145.7224)"
           id="g72"><path
             id="path74"
             style="fill:#ffffff;fill-opacity:1;fill-rule:nonzero;stroke:none"
             d="M 0,0 C 0,0 4.494,-14.936 21.432,-11.573 38.369,-8.209 37.43,7.434 37.43,7.434 37.43,7.434 24.216,-8.297 0,0" /></g><g
           transform="translate(279.6917,184.0091)"
           id="g76"><path
             id="path78"
             style="fill:#ffffff;fill-opacity:1;fill-rule:nonzero;stroke:none"
             d="M 0,0 C 0,0 31.083,45.903 40.672,47.337 50.261,48.771 54.912,9.965 26.861,-0.307 -1.19,-10.58 0,0 0,0" /></g><g
           transform="translate(287.9541,174.366)"
           id="g80"><path
             id="path82"
             style="fill:#ffffff;fill-opacity:1;fill-rule:nonzero;stroke:none"
             d="M 0,0 C 0,0 40.437,7.09 43.047,-2.5 45.657,-12.09 34.301,-16.461 21.78,-12.601 9.259,-8.74 0,0 0,0" /></g><g
           transform="translate(246.6741,177.4518)"
           id="g84"><path
             id="path86"
             style="fill:#ffffff;fill-opacity:1;fill-rule:nonzero;stroke:none"
             d="m 0,0 c 0,0 -46.265,30.541 -55.674,28.202 -9.409,-2.338 1.122,-39.976 30.969,-38.75 C 5.143,-9.322 0,0 0,0" /></g><g
           transform="translate(242.7237,165.3831)"
           id="g88"><path
             id="path90"
             style="fill:#ffffff;fill-opacity:1;fill-rule:nonzero;stroke:none"
             d="m 0,0 c 0,0 -40.078,-8.9 -38.825,-18.76 1.253,-9.859 13.418,-9.559 23.513,-1.207 C -5.216,-11.615 0,0 0,0" /></g><g
           transform="translate(264.4433,205.8129)"
           id="g92"><path
             id="path94"
             style="fill:none;stroke:#ffffff;stroke-width:2.20099998;stroke-linecap:butt;stroke-linejoin:miter;stroke-miterlimit:10;stroke-dasharray:none;stroke-opacity:1"
             d="M 0,0 C 0,0 -11.375,34.163 4.909,34.992 14.994,35.507 14.342,21.821 11.504,18.036 10.813,17.117 10.093,16.204 8.986,15.89 4.49,14.613 1.152,16.778 0.747,22.804" /></g><g
           transform="translate(253.491,203.6378)"
           id="g96"><path
             id="path98"
             style="fill:none;stroke:#ffffff;stroke-width:2.20099998;stroke-linecap:butt;stroke-linejoin:miter;stroke-miterlimit:10;stroke-dasharray:none;stroke-opacity:1"
             d="m 0,0 c 0,0 -2.543,35.916 -17.908,30.461 -9.516,-3.379 -3.684,-15.777 0.385,-18.189 0.989,-0.587 2.004,-1.155 3.147,-1.022 4.643,0.539 6.9,3.814 4.972,9.537" /></g><g
           transform="translate(272.9097,196.0621)"
           id="g100"><path
             id="path102"
             style="fill:#ffffff;fill-opacity:1;fill-rule:nonzero;stroke:none"
             d="m 0,0 c 1.588,-7.994 -2.391,-15.52 -8.886,-16.81 -6.495,-1.29 -13.048,4.145 -14.635,12.139 -1.588,7.994 2.391,15.52 8.886,16.81 C -8.14,13.429 -1.588,7.994 0,0" /></g><g
           transform="translate(494.7076,250)"
           id="g104"><path
             id="path106"
             style="fill:none;stroke:#f7931e;stroke-width:6.92999983;stroke-linecap:butt;stroke-linejoin:miter;stroke-miterlimit:10;stroke-dasharray:none;stroke-opacity:1"
             d="m 0,0 c 0,-134.856 -109.322,-244.178 -244.178,-244.178 -134.856,0 -244.179,109.322 -244.179,244.178 0,134.856 109.323,244.178 244.179,244.178 C -109.322,244.178 0,134.856 0,0 Z" /></g></g></g></g></svg>